<?xml version="1.0" encoding="UTF-8"?>
<!-- Generated by jsxcad -->
<!DOCTYPE svg PUBLIC "-//W3C//DTD SVG 1.1 Tiny//EN" "http://www.w3.org/Graphics/SVG/1.1/DTD/svg11-tiny.dtd">
<svg baseProfile="tiny" height="19.75383mm" width="18.25000mm" viewBox="-0.00000 6.25483 18.25000 19.75383" version="1.1" stroke="black" stroke-width=".1" fill="none" xmlns="http://www.w3.org/2000/svg">
<path fill="#000000" stroke="#000000" d="M0.01317 12.58337 L0.05253 12.16436 L0.11909 11.74248 L0.21349 11.32063 L0.32838 10.92510 L0.47265 10.52343 L0.64436 10.12670 L0.83729 9.74871 L1.04942 9.39015 L1.28486 9.04317 L1.54887 8.70242 L1.82484 8.38907 L2.13424 8.07967 L2.44759 7.80370 L2.78833 7.53970 L3.13532 7.30426 L3.49387 7.09212 L3.87187 6.89919 L4.26860 6.72748 L4.67027 6.58321 L5.06579 6.46832 L5.48765 6.37392 L5.90953 6.30736 L6.32854 6.26800 L6.75000 6.25483 L7.17146 6.26800 L7.59047 6.30736 L8.01235 6.37392 L8.43421 6.46832 L8.82973 6.58321 L9.23140 6.72748 L9.62813 6.89919 L10.00613 7.09212 L10.36468 7.30426 L10.71167 7.53970 L11.05241 7.80370 L11.36576 8.07967 L11.67516 8.38907 L11.95113 8.70242 L12.21514 9.04317 L12.45058 9.39015 L12.66271 9.74871 L12.85564 10.12670 L13.02735 10.52343 L13.17162 10.92510 L13.28651 11.32063 L13.38091 11.74248 L13.44747 12.16436 L13.48683 12.58337 L13.50000 13.00483 L13.48683 13.42629 L13.44747 13.84530 L13.38091 14.26718 L13.28651 14.68904 L13.17162 15.08456 L13.02735 15.48623 L12.85564 15.88296 L12.66271 16.26096 L12.45058 16.61951 L12.21514 16.96650 L11.95113 17.30724 L11.67516 17.62059 L11.36576 17.92999 L11.05241 18.20596 L10.71167 18.46997 L10.36468 18.70541 L10.00613 18.91754 L9.62813 19.11047 L9.23140 19.28218 L8.82973 19.42645 L8.43421 19.54134 L8.01235 19.63574 L7.59047 19.70230 L7.17146 19.74166 L6.75000 19.75483 L6.32854 19.74166 L5.90953 19.70230 L5.48765 19.63574 L5.06579 19.54134 L4.67027 19.42645 L4.26860 19.28218 L3.87187 19.11047 L3.49387 18.91754 L3.13532 18.70541 L2.78833 18.46997 L2.44759 18.20596 L2.13424 17.92999 L1.82484 17.62059 L1.54887 17.30724 L1.28486 16.96650 L1.04942 16.61951 L0.83729 16.26096 L0.64436 15.88296 L0.47265 15.48623 L0.32838 15.08456 L0.21349 14.68904 L0.11909 14.26718 L0.05253 13.84530 L0.01317 13.42629 L0.00000 13.00483 z M12.50000 13.00483 L12.48878 12.64581 L12.45525 12.28888 L12.39855 11.92950 L12.31814 11.57014 L12.22027 11.23321 L12.09737 10.89105 L11.95110 10.55309 L11.78675 10.23109 L11.60605 9.92566 L11.40549 9.63008 L11.18059 9.33982 L10.94551 9.07289 L10.68195 8.80932 L10.41501 8.57424 L10.12475 8.34935 L9.82917 8.14878 L9.52374 7.96808 L9.20174 7.80373 L8.86379 7.65746 L8.52162 7.53456 L8.18469 7.43669 L7.82534 7.35628 L7.46595 7.29958 L7.10902 7.26605 L6.75000 7.25483 L6.39098 7.26605 L6.03405 7.29958 L5.67466 7.35628 L5.31531 7.43669 L4.97838 7.53456 L4.63621 7.65746 L4.29826 7.80373 L3.97626 7.96808 L3.67083 8.14878 L3.37525 8.34935 L3.08499 8.57424 L2.81805 8.80932 L2.55449 9.07289 L2.31941 9.33982 L2.09451 9.63008 L1.89395 9.92566 L1.71325 10.23109 L1.54890 10.55309 L1.40263 10.89105 L1.27973 11.23321 L1.18186 11.57014 L1.10145 11.92950 L1.04475 12.28888 L1.01122 12.64581 L1.00000 13.00483 L1.01122 13.36386 L1.04475 13.72078 L1.10145 14.08017 L1.18186 14.43952 L1.27973 14.77645 L1.40263 15.11862 L1.54890 15.45657 L1.71325 15.77857 L1.89395 16.08401 L2.09451 16.37958 L2.31941 16.66985 L2.55449 16.93678 L2.81805 17.20034 L3.08499 17.43543 L3.37525 17.66032 L3.67083 17.86088 L3.97626 18.04158 L4.29826 18.20593 L4.63621 18.35221 L4.97838 18.47510 L5.31531 18.57297 L5.67466 18.65338 L6.03405 18.71008 L6.39098 18.74361 L6.75000 18.75483 L7.10902 18.74361 L7.46595 18.71008 L7.82534 18.65338 L8.18469 18.57297 L8.52162 18.47510 L8.86379 18.35221 L9.20174 18.20593 L9.52374 18.04158 L9.82917 17.86088 L10.12475 17.66032 L10.41501 17.43543 L10.68195 17.20034 L10.94551 16.93678 L11.18059 16.66985 L11.40549 16.37958 L11.60605 16.08401 L11.78675 15.77857 L11.95110 15.45657 L12.09737 15.11862 L12.22027 14.77645 L12.31814 14.43952 L12.39855 14.08017 L12.45525 13.72078 L12.48878 13.36386 z"/>
<path fill="#000000" stroke="#000000" d="M1.01122 12.64581 L1.04475 12.28888 L1.10145 11.92950 L1.18186 11.57014 L1.27973 11.23321 L1.40263 10.89105 L1.54890 10.55309 L1.71325 10.23109 L1.89395 9.92566 L2.09451 9.63008 L2.31941 9.33982 L2.55449 9.07289 L2.81805 8.80932 L3.08499 8.57424 L3.37525 8.34935 L3.67083 8.14878 L3.97626 7.96808 L4.29826 7.80373 L4.63621 7.65746 L4.97838 7.53456 L5.31531 7.43669 L5.67466 7.35628 L6.03405 7.29958 L6.39098 7.26605 L6.75000 7.25483 L7.10902 7.26605 L7.46595 7.29958 L7.82534 7.35628 L8.18469 7.43669 L8.52162 7.53456 L8.86379 7.65746 L9.20174 7.80373 L9.52374 7.96808 L9.82917 8.14878 L10.12475 8.34935 L10.41501 8.57424 L10.68195 8.80932 L10.94551 9.07289 L11.18059 9.33982 L11.40549 9.63008 L11.60605 9.92566 L11.78675 10.23109 L11.95110 10.55309 L12.09737 10.89105 L12.22027 11.23321 L12.31814 11.57014 L12.39855 11.92950 L12.45525 12.28888 L12.48878 12.64581 L12.50000 13.00483 L12.48878 13.36386 L12.45525 13.72078 L12.39855 14.08017 L12.31814 14.43952 L12.22027 14.77645 L12.09737 15.11862 L11.95110 15.45657 L11.78675 15.77857 L11.60605 16.08401 L11.40549 16.37958 L11.18059 16.66985 L10.94551 16.93678 L10.68195 17.20034 L10.41501 17.43543 L10.12475 17.66032 L9.82917 17.86088 L9.52374 18.04158 L9.20174 18.20593 L8.86379 18.35221 L8.52162 18.47510 L8.18469 18.57297 L7.82534 18.65338 L7.46595 18.71008 L7.10902 18.74361 L6.75000 18.75483 L6.39098 18.74361 L6.03405 18.71008 L5.67466 18.65338 L5.31531 18.57297 L4.97838 18.47510 L4.63621 18.35221 L4.29826 18.20593 L3.97626 18.04158 L3.67083 17.86088 L3.37525 17.66032 L3.08499 17.43543 L2.81805 17.20034 L2.55449 16.93678 L2.31941 16.66985 L2.09451 16.37958 L1.89395 16.08401 L1.71325 15.77857 L1.54890 15.45657 L1.40263 15.11862 L1.27973 14.77645 L1.18186 14.43952 L1.10145 14.08017 L1.04475 13.72078 L1.01122 13.36386 L1.00000 13.00483 z"/>
<path fill="#000000" stroke="#000000" d="M6.75000 24.50483 L7.46805 24.48239 L8.18191 24.41534 L8.90067 24.30194 L9.61939 24.14111 L10.29324 23.94537 L10.97757 23.69958 L11.65348 23.40704 L12.29747 23.07834 L12.90835 22.71692 L13.49950 22.31580 L14.08003 21.86602 L14.61389 21.39585 L15.14102 20.86872 L15.61119 20.33486 L16.06097 19.75434 L16.46209 19.16318 L16.82351 18.55230 L17.15221 17.90831 L17.34922 17.45311 L18.25000 17.45311 L18.25000 26.00866 L6.75000 26.00866 z"/>
</svg>