<?xml version="1.0" encoding="UTF-8"?>
<!-- Generated by jsxcad -->
<!DOCTYPE svg PUBLIC "-//W3C//DTD SVG 1.1 Tiny//EN" "http://www.w3.org/Graphics/SVG/1.1/DTD/svg11-tiny.dtd">
<svg baseProfile="tiny" height="32.15000mm" width="32.15000mm" viewBox="-0.00000 9.35000 32.15000 32.15000" version="1.1" stroke="black" stroke-width=".1" fill="none" xmlns="http://www.w3.org/2000/svg">
<path fill="#000000" stroke="#000000" d="M0.01667 20.66598 L0.86358 16.39754 L0.91148 16.32583 L3.34477 12.68320 L3.41625 12.63552 L7.04754 10.21358 L7.13156 10.19691 L11.40000 9.35000 L11.48402 9.36667 L15.75246 10.21358 L15.82417 10.26148 L19.46680 12.69477 L19.51448 12.76625 L21.93642 16.39754 L21.95309 16.48156 L22.80000 20.75000 L22.78333 20.83402 L21.93642 25.10246 L21.88874 25.17395 L19.46680 28.80523 L19.39510 28.85313 L15.75246 31.28642 L15.66844 31.30309 L11.40000 32.15000 L11.31598 32.13333 L7.04754 31.28642 L6.97583 31.23852 L3.33320 28.80523 L3.28552 28.73375 L0.86358 25.10246 L0.84691 25.01844 L0.00000 20.75000 z M21.74254 19.65829 L20.42918 15.62365 L20.40333 15.54423 L17.55987 12.39170 L17.50390 12.32964 L13.64151 10.61176 L13.56548 10.57795 L9.31813 10.57795 L9.23452 10.57795 L5.37213 12.29583 L5.29610 12.32964 L2.45264 15.48217 L2.39667 15.54423 L1.08331 19.57887 L1.05746 19.65829 L1.49729 23.87139 L1.50595 23.95432 L3.63843 27.64639 L3.68041 27.71907 L7.11034 30.20545 L7.17786 30.25439 L11.31849 31.13271 L11.40000 31.15000 L15.54064 30.27168 L15.62214 30.25439 L19.05207 27.76802 L19.11959 27.71907 L21.25208 24.02700 L21.29405 23.95432 L21.73388 19.74122 z"/>
<path fill="#000000" stroke="#000000" d="M1.08331 19.57887 L2.39667 15.54423 L2.45264 15.48217 L5.29610 12.32964 L5.37213 12.29583 L9.23452 10.57795 L9.31813 10.57795 L13.56548 10.57795 L13.64151 10.61176 L17.50390 12.32964 L17.55987 12.39170 L20.40333 15.54423 L20.42918 15.62365 L21.74254 19.65829 L21.73388 19.74122 L21.29405 23.95432 L21.25208 24.02700 L19.11959 27.71907 L19.05207 27.76802 L15.62214 30.25439 L15.54064 30.27168 L11.40000 31.15000 L11.31849 31.13271 L7.17786 30.25439 L7.11034 30.20545 L3.68041 27.71907 L3.63843 27.64639 L1.50595 23.95432 L1.49729 23.87139 L1.05746 19.65829 z"/>
<path fill="#000000" stroke="#000000" d="M12.80000 41.50000 L11.40000 41.50000 L11.79562 41.44294 L17.26360 40.65429 L19.02869 39.84629 L20.63984 39.10876 L22.63408 38.19586 L23.97148 37.03504 L27.09210 34.32647 L27.63198 33.48544 L28.24852 32.52500 L29.05136 31.27433 L29.14722 31.12500 L29.34981 31.12500 L32.15000 31.12500 L32.15000 32.52500 L32.15000 35.63750 L32.15000 40.10000 L32.15000 41.50000 z"/>
</svg>