<?xml version="1.0" encoding="UTF-8"?>
<!-- Generated by jsxcad -->
<!DOCTYPE svg PUBLIC "-//W3C//DTD SVG 1.1 Tiny//EN" "http://www.w3.org/Graphics/SVG/1.1/DTD/svg11-tiny.dtd">
<svg baseProfile="tiny" height="32.15000mm" width="32.15000mm" viewBox="-0.00000 9.35000 32.15000 32.15000" version="1.1" stroke="black" stroke-width=".1" fill="none" xmlns="http://www.w3.org/2000/svg">
<path fill="#000000" stroke="#000000" d="M0.86358 16.39754 L3.34477 12.68320 L7.04754 10.21358 L11.40000 9.35000 L15.75246 10.21358 L19.46680 12.69477 L21.93642 16.39754 L22.80000 20.75000 L21.93642 25.10246 L19.46680 28.80523 L15.75246 31.28642 L11.40000 32.15000 L7.04754 31.28642 L3.33320 28.80523 L0.86358 25.10246 L0.00000 20.75000 z M21.74254 19.65829 L20.40333 15.54423 L17.50390 12.32964 L13.56548 10.57795 L9.23452 10.57795 L5.29610 12.32964 L2.39667 15.54423 L1.05746 19.65829 L1.50595 23.95432 L3.68041 27.71907 L7.17786 30.25439 L11.40000 31.15000 L15.62214 30.25439 L19.11959 27.71907 L21.29405 23.95432 z"/>
<path fill="#000000" stroke="#000000" d="M1.05746 19.65829 L2.39667 15.54423 L5.29610 12.32964 L9.23452 10.57795 L13.56548 10.57795 L17.50390 12.32964 L20.40333 15.54423 L21.74254 19.65829 L21.29405 23.95432 L19.11959 27.71907 L15.62214 30.25439 L11.40000 31.15000 L7.17786 30.25439 L3.68041 27.71907 L1.50595 23.95432 z"/>
<path fill="#000000" stroke="#000000" d="M11.40000 41.50000 L17.26360 40.65429 L22.63408 38.19586 L27.09210 34.32647 L30.27726 29.36462 L30.35489 29.10000 L32.15000 29.10000 L32.15000 41.50000 z"/>
</svg>