<?xml version="1.0" encoding="UTF-8"?>
<!-- Generated by jsxcad -->
<!DOCTYPE svg PUBLIC "-//W3C//DTD SVG 1.1 Tiny//EN" "http://www.w3.org/Graphics/SVG/1.1/DTD/svg11-tiny.dtd">
<svg baseProfile="tiny" height="32.09842mm" width="32.13708mm" viewBox="0.00001 9.40158 32.13708 32.09842" version="1.1" stroke="black" stroke-width=".1" fill="none" xmlns="http://www.w3.org/2000/svg">
<path fill="#000000" stroke="#000000" d="M0.10283 19.12970 L0.61784 17.01061 L1.51806 15.04367 L2.76589 13.29112 L4.33928 11.78963 L6.16663 10.61557 L8.16565 9.81463 L10.30384 9.40158 L12.47035 9.40158 L14.60854 9.81463 L16.60757 10.61557 L18.43492 11.78963 L20.00830 13.29112 L21.25613 15.04367 L22.15636 17.01061 L22.67136 19.12970 L22.77418 21.29255 L22.46344 23.44716 L21.75822 25.48285 L20.66924 27.36829 L19.24917 29.00517 L17.55907 30.33471 L15.61534 31.33688 L13.53901 31.94506 L11.38710 32.15000 L9.23519 31.94506 L7.15885 31.33688 L5.21512 30.33471 L3.52503 29.00517 L2.10495 27.36829 L1.01598 25.48285 L0.31076 23.44716 L0.00001 21.29255 z M21.77343 20.21702 L21.45356 18.13726 L20.71988 16.16098 L19.60780 14.37976 L18.16152 12.85905 L16.44005 11.66003 L14.49239 10.82442 L12.44200 10.40364 L10.33220 10.40364 L8.28180 10.82442 L6.33414 11.66003 L4.61267 12.85905 L3.16639 14.37976 L2.05431 16.16098 L1.32064 18.13726 L1.00076 20.21702 L1.10579 22.31677 L1.63627 24.36682 L2.55691 26.24434 L3.85606 27.92241 L5.43762 29.28016 L7.27888 30.30419 L9.28652 30.93566 L11.38710 31.15000 L13.48767 30.93566 L15.49531 30.30419 L17.33658 29.28016 L18.91813 27.92241 L20.21729 26.24434 L21.13792 24.36682 L21.66840 22.31677 z"/>
<path fill="#000000" stroke="#000000" d="M1.00076 20.21702 L1.32064 18.13726 L2.05431 16.16098 L3.16639 14.37976 L4.61267 12.85905 L6.33414 11.66003 L8.28180 10.82442 L10.33220 10.40364 L12.44200 10.40364 L14.49239 10.82442 L16.44005 11.66003 L18.16152 12.85905 L19.60780 14.37976 L20.71988 16.16098 L21.45356 18.13726 L21.77343 20.21702 L21.66840 22.31677 L21.13792 24.36682 L20.21729 26.24434 L18.91813 27.92241 L17.33658 29.28016 L15.49531 30.30419 L13.48767 30.93566 L11.38710 31.15000 L9.28652 30.93566 L7.27888 30.30419 L5.43762 29.28016 L3.85606 27.92241 L2.55691 26.24434 L1.63627 24.36682 L1.10579 22.31677 z"/>
<path fill="#000000" stroke="#000000" d="M11.38710 41.50000 L14.33634 41.28934 L17.25070 40.65429 L20.00172 39.62726 L22.62117 38.19586 L24.96357 36.44210 L27.07920 34.32647 L28.83296 31.98408 L30.26435 29.36462 L30.36314 29.10000 L32.13710 29.10000 L32.13710 41.50000 z"/>
</svg>