<?xml version="1.0" encoding="UTF-8"?>
<!-- Generated by jsxcad -->
<!DOCTYPE svg PUBLIC "-//W3C//DTD SVG 1.1 Tiny//EN" "http://www.w3.org/Graphics/SVG/1.1/DTD/svg11-tiny.dtd">
<svg baseProfile="tiny" height="31.20105mm" width="27.24107mm" viewBox="-0.00000 4.21845 27.24107 31.20105" version="1.1" stroke="black" stroke-width=".1" fill="none" xmlns="http://www.w3.org/2000/svg">
<path fill="#000000" stroke="#000000" d="M13.41667 4.70968 L24.91667 4.70968 L24.91667 13.26523 L23.79933 13.26523 L23.37227 11.95330 L20.16617 8.39871 L15.81119 6.46173 L13.41667 6.46173 z"/>
<path fill="#000000" stroke="#000000" d="M6.73519 16.75029 L8.31201 13.29324 L11.50923 11.23479 L15.32410 11.23479 L18.52133 13.29324 L20.09814 16.75029 L19.55746 20.51202 L17.07113 23.38484 L13.41667 24.45968 L9.76221 23.38484 L7.27587 20.51202 z M18.88694 19.48130 L18.88694 15.93806 L16.79142 13.05419 L13.41667 11.95968 L10.04191 13.05419 L7.94640 15.93806 L7.94640 19.48130 L10.04191 22.36516 L13.41667 23.45968 L16.79142 22.36516 z"/>
<path fill="#000000" stroke="#000000" d="M7.94640 15.93806 L10.04191 13.05419 L13.41667 11.95968 L16.79142 13.05419 L18.88694 15.93806 L18.88694 19.48130 L16.79142 22.36516 L13.41667 23.45968 L10.04191 22.36516 L7.94640 19.48130 z"/>
<path stroke="#000000" d="M 0.00000 4.21845 L 26.83333 4.21845 L 26.83333 31.21845 L 0.00000 31.21845 z"/>
<path stroke="#000000" d="M 0.48214 34.81682 L 0.48214 34.93736 L 0.60268 35.17843 L 0.72321 35.29896 L 0.96429 35.41950 L 1.44643 35.41950 L 1.68750 35.29896 L 1.80804 35.17843 L 1.92857 34.93736 L 1.92857 34.69628 L 1.80804 34.45521 L 1.56696 34.09361 L 0.36161 32.88825 L 2.04911 32.88825"/>
<path stroke="#000000" d="M 4.33929 35.05789 L 4.21875 35.29896 L 3.85714 35.41950 L 3.61607 35.41950 L 3.25446 35.29896 L 3.01339 34.93736 L 2.89286 34.33468 L 2.89286 33.73200 L 3.01339 33.24986 L 3.25446 33.00878 L 3.61607 32.88825 L 3.73661 32.88825 L 4.09821 33.00878 L 4.33929 33.24986 L 4.45982 33.61146 L 4.45982 33.73200 L 4.33929 34.09361 L 4.09821 34.33468 L 3.73661 34.45521 L 3.61607 34.45521 L 3.25446 34.33468 L 3.01339 34.09361 L 2.89286 33.73200"/>
<path stroke="#000000" d="M 5.42411 33.12932 L 5.30357 33.00878 L 5.42411 32.88825 L 5.54464 33.00878 z"/>
<path stroke="#000000" d="M 6.99107 35.41950 L 6.62946 35.29896 L 6.50893 35.05789 L 6.50893 34.81682 L 6.62946 34.57575 L 6.87054 34.45521 L 7.35268 34.33468 L 7.71429 34.21414 L 7.95536 33.97307 L 8.07589 33.73200 L 8.07589 33.37039 L 7.95536 33.12932 L 7.83482 33.00878 L 7.47321 32.88825 L 6.99107 32.88825 L 6.62946 33.00878 L 6.50893 33.12932 L 6.38839 33.37039 L 6.38839 33.73200 L 6.50893 33.97307 L 6.75000 34.21414 L 7.11161 34.33468 L 7.59375 34.45521 L 7.83482 34.57575 L 7.95536 34.81682 L 7.95536 35.05789 L 7.83482 35.29896 L 7.47321 35.41950 z"/>
<path stroke="#000000" d="M 9.04018 35.41950 L 10.36607 35.41950 L 9.64286 34.45521 L 10.00446 34.45521 L 10.24554 34.33468 L 10.36607 34.21414 L 10.48661 33.85253 L 10.48661 33.61146 L 10.36607 33.24986 L 10.12500 33.00878 L 9.76339 32.88825 L 9.40179 32.88825 L 9.04018 33.00878 L 8.91964 33.12932 L 8.79911 33.37039"/>
<path stroke="#000000" d=""/>
<path stroke="#000000" d="M 13.13839 34.57575 L 14.46429 32.88825 M 14.46429 34.57575 L 13.13839 32.88825"/>
<path stroke="#000000" d=""/>
<path stroke="#000000" d="M 17.23661 34.81682 L 17.23661 34.93736 L 17.35714 35.17843 L 17.47768 35.29896 L 17.71875 35.41950 L 18.20089 35.41950 L 18.44196 35.29896 L 18.56250 35.17843 L 18.68304 34.93736 L 18.68304 34.69628 L 18.56250 34.45521 L 18.32143 34.09361 L 17.11607 32.88825 L 18.80357 32.88825"/>
<path stroke="#000000" d="M 21.09375 35.05789 L 20.97321 35.29896 L 20.61161 35.41950 L 20.37054 35.41950 L 20.00893 35.29896 L 19.76786 34.93736 L 19.64732 34.33468 L 19.64732 33.73200 L 19.76786 33.24986 L 20.00893 33.00878 L 20.37054 32.88825 L 20.49107 32.88825 L 20.85268 33.00878 L 21.09375 33.24986 L 21.21429 33.61146 L 21.21429 33.73200 L 21.09375 34.09361 L 20.85268 34.33468 L 20.49107 34.45521 L 20.37054 34.45521 L 20.00893 34.33468 L 19.76786 34.09361 L 19.64732 33.73200"/>
<path stroke="#000000" d="M 22.17857 33.12932 L 22.05804 33.00878 L 22.17857 32.88825 L 22.29911 33.00878 z"/>
<path stroke="#000000" d="M 24.70982 34.57575 L 24.58929 34.21414 L 24.34821 33.97307 L 23.98661 33.85253 L 23.86607 33.85253 L 23.50446 33.97307 L 23.26339 34.21414 L 23.14286 34.57575 L 23.14286 34.69628 L 23.26339 35.05789 L 23.50446 35.29896 L 23.86607 35.41950 L 23.98661 35.41950 L 24.34821 35.29896 L 24.58929 35.05789 L 24.70982 34.57575 L 24.70982 33.97307 L 24.58929 33.37039 L 24.34821 33.00878 L 23.98661 32.88825 L 23.74554 32.88825 L 23.38393 33.00878 L 23.26339 33.24986"/>
<path stroke="#000000" d="M 26.15625 35.41950 L 25.79464 35.29896 L 25.67411 35.05789 L 25.67411 34.81682 L 25.79464 34.57575 L 26.03571 34.45521 L 26.51786 34.33468 L 26.87946 34.21414 L 27.12054 33.97307 L 27.24107 33.73200 L 27.24107 33.37039 L 27.12054 33.12932 L 27.00000 33.00878 L 26.63839 32.88825 L 26.15625 32.88825 L 25.79464 33.00878 L 25.67411 33.12932 L 25.55357 33.37039 L 25.55357 33.73200 L 25.67411 33.97307 L 25.91518 34.21414 L 26.27679 34.33468 L 26.75893 34.45521 L 27.00000 34.57575 L 27.12054 34.81682 L 27.12054 35.05789 L 27.00000 35.29896 L 26.63839 35.41950 z"/>
</svg>